<?xml version="1.0" encoding="UTF-8"?>
<svg id="Capa_1" data-name="Capa 1" xmlns="http://www.w3.org/2000/svg" viewBox="0 0 800 330.81">
  <defs>
    <style>
      .cls-1 {
        fill: #0c8c0c;
      }
    </style>
  </defs>
  <path class="cls-1" d="M178.74,307.07v-41.75c0-13.11-10.63-23.74-23.74-23.74h-6.91l16.91-14.55,100.65,36.88c9.22,3.38,18.72,6.31,28.25,8.72,41.88,10.59,65.57,14.88,116.16,11.41l6.67-.14c28.83-.6,52.28-24.54,52.28-53.37v-10.5c25.72-5.63,51.8-9.92,78.13-12.82l16.72,31.83h-9.93c-13.11,0-23.74,10.63-23.74,23.74v40.02c0,13.11,10.63,23.74,23.74,23.74h89.82c13.11,0,23.74-10.63,23.74-23.74v-40.02c0-13.11-10.63-23.74-23.74-23.74h-25.28l13.57-36.38c.48,0,46.14,.19,46.14,.19v96.71c0,11.76,9.53,21.28,21.28,21.28h39.24c11.76,0,21.28-9.53,21.28-21.28v-96.35h.99c10.21,.05,20.25-3.56,27.57-10.68,9.13-8.88,13.21-21.53,10.78-34.49-.89-4.77-2.76-9.34-5.46-13.37-7.35-10.96-19.12-17.12-31.77-17.07h-2.12s0-96.34,0-96.34c0-11.76-9.53-21.28-21.28-21.28h-39.24c-11.76,0-21.28,9.53-21.28,21.28V127.68s-45.98,.04-46.62,.04l-13.18-35.95h25.38c13.11,0,23.74-10.63,23.74-23.74V28.01c0-13.11-10.63-23.74-23.74-23.74h-89.82c-13.11,0-23.74,10.63-23.74,23.74v40.02c0,13.11,10.63,23.74,23.74,23.74h10.08l-16.35,31.63c-26.69-2.83-52.94-7.06-78.65-12.65v-10.58c0-28.76-23.53-52.78-52.28-53.37l-7.95-.16c-49.4-3.2-72.7,1.05-113.95,11.48-9.36,2.36-18.69,5.24-27.74,8.53l-102.05,37.16-16.94-14.57h6.91c13.11,0,23.74-10.63,23.74-23.74V23.74c0-13.11-10.63-23.74-23.74-23.74H65.18c-13.11,0-23.74,10.63-23.74,23.74v41.75c0,13.11,10.63,23.74,23.74,23.74h40.38l29.58,25.46-3.66,1.33c-16.2,5.9-28.2,19.37-32.64,35.51h-19.43v-29.35c0-11.76-9.53-21.28-21.28-21.28H21.28c-11.76,0-21.28,9.53-21.28,21.28v86.44c0,11.76,9.53,21.28,21.28,21.28H58.12c11.76,0,21.28-9.53,21.28-21.28v-29.35h19.44c4.45,16.08,16.4,29.51,32.53,35.42l3.79,1.39-29.62,25.48h-40.37c-13.11,0-23.74,10.63-23.74,23.74v41.75c0,13.11,10.63,23.74,23.74,23.74h89.82c13.12,0,23.75-10.63,23.75-23.74Zm461-40.29v32.01h-81.81v-32.01h81.81Zm-81.81-202.75V32.01h81.81v32.01h-81.81Zm-488.74-2.54V27.75h81.81V61.49H69.18ZM27.75,202.16v-73.52h23.91v73.52H27.75Zm367.76,1.3l-26.1-2.92v-70.27l26.08-2.92c20.93,.06,37.94,17.11,37.94,38.06,0,20.94-17,37.98-37.93,38.05Zm-53.85-6.02l-65.4-7.31c-12.61-1.41-22.11-12.04-22.11-24.72h0c0-12.68,9.51-23.31,22.11-24.72l65.4-7.31v64.07h0Zm249.83,34.53l-14.41-27.44c8.36-.58,16.75-1.03,25.15-1.34l-10.73,28.78Zm140.74,61.13h-26.32v-90.13l26.32,.12v90.01Zm37.07-134.82c1.91,1.9,2.96,4.43,2.96,7.13s-1.05,5.23-2.96,7.13c-1.91,1.9-4.45,2.94-7.13,2.93l-128.59-.56c-60.81-.24-121.06,6.5-179.42,20.01,4.48-8.88,7.02-18.91,7.02-29.52s-2.54-20.65-7.03-29.54c57.53,13.25,117.77,19.85,179.39,19.6l128.62-.13c2.69,0,5.23,1.03,7.14,2.93Zm-63.39-120.56h26.32V127.63l-26.32,.03V37.71Zm-114.43,61.34l10.33,28.15c-8.11-.29-16.19-.7-24.24-1.24l13.91-26.91Zm-289.85-14.03c39.24-9.92,59.78-13.67,105.65-10.67l8.88,.2c13.84,.29,25.11,11.78,25.11,25.63v3.98c-.42-.11-7.38-1.92-7.38-1.92-12.6-3.3-25.56-4.24-38.51-2.79l-122.2,13.66c-26.67,2.98-46.77,25.46-46.77,52.3s20.11,49.31,46.77,52.3l122.2,13.66c12.95,1.45,25.9,.51,38.51-2.8,0,0,6.96-1.81,7.38-1.92v3.88c0,13.85-11.26,25.35-25.12,25.63l-7.66,.18c-47.03,3.25-67.93-.53-107.77-10.61-8.6-2.18-17.19-4.83-25.51-7.88l-86.5-31.7V124.72l87.87-31.99c8.17-2.97,16.6-5.56,25.05-7.7Zm-160.7,103.63c-9.72-3.56-16.25-12.91-16.25-23.27s6.55-19.73,16.3-23.28l18.28-6.66,1.71,1.47v56.99l-1.7,1.47-18.33-6.72Zm-71.74,114.41v-33.75h81.81v33.75H69.18Z"/>
</svg>